<svg xmlns="http://www.w3.org/2000/svg" enable-background="new 0 0 24 24" viewBox="0 0 24 24" id="github-alt">
  <path fill="#b3b3b3" d="m12.278 20.999c3.575 0 8.567.085 10.384-3.506.685-1.373.838-2.958.838-4.453h-.001c0-1.964-.551-3.834-1.869-5.353.244-.726.369-1.49.369-2.259 0-1.008-.23-1.514-.699-2.428-2.147 0-3.536.398-5.165 1.65-1.255-.295-2.559-.431-3.853-.431-1.433 0-2.861.146-4.25.469-1.653-1.266-3.043-1.688-5.213-1.688-.464.914-.7 1.42-.7 2.428 0 .768.12 1.546.369 2.287-1.321 1.505-1.988 3.361-1.988 5.325 0 1.495.269 3.094.968 4.453 1.888 3.633 7.178 3.506 10.81 3.506z"></path>
  <path fill="#fff" d="m7.209 11.535c.911 0 1.787.159 2.683.281.719.108 1.433.15 2.161.15.733 0 1.447-.042 2.161-.15.911-.122 1.778-.281 2.683-.281 2.242 0 3.521 1.814 3.521 3.872 0 4.12-3.848 4.748-7.216 4.748h-2.309c-3.354 0-7.207-.632-7.207-4.748.001-2.058 1.28-3.872 3.523-3.872z"></path>
  <path fill="#999" d="M16.405 18.073c1.29 0 1.835-1.692 1.835-2.727s-.545-2.727-1.835-2.727-1.835 1.692-1.835 2.727.545 2.727 1.835 2.727zM7.72 18.073c1.29 0 1.835-1.692 1.835-2.727s-.546-2.726-1.835-2.726-1.835 1.692-1.835 2.727.545 2.726 1.835 2.726z"></path>
  <path fill="#b3b3b3" d="M16.461 17.99c1.236 0 1.758-1.603 1.758-2.583s-.522-2.583-1.758-2.583-1.758 1.603-1.758 2.583.522 2.583 1.758 2.583zM7.659 17.99c1.236 0 1.758-1.603 1.758-2.583s-.522-2.583-1.758-2.583-1.758 1.603-1.758 2.583.522 2.583 1.758 2.583z"></path>
  <path d="m11.546 21.555c-3.714 0-8.583-.118-10.515-3.835-1.424-2.769-1.563-7.05.828-10.08-.182-.666-.275-1.36-.275-2.069 0-1.151.276-1.752.765-2.715.128-.252.386-.411.669-.411 2.203 0 3.668.437 5.272 1.595 2.481-.524 5.204-.538 7.583-.037 1.566-1.131 3.021-1.558 5.226-1.558.281 0 .539.157.667.408.476.926.767 1.553.767 2.718 0 .694-.093 1.379-.276 2.044 1.157 1.482 1.743 3.297 1.743 5.403 0 3.611-1.026 5.885-3.23 7.156-1.988 1.146-4.834 1.381-8.497 1.381h-.347c-.126 0-.253 0-.38 0zm-8.067-17.602c-.278.577-.395.949-.395 1.618 0 .692.108 1.364.322 1.998.085.253.029.533-.147.734-2.229 2.538-2.138 6.312-.895 8.728 1.576 3.032 6.18 3.03 9.56 3.024h.349c7.548 0 10.228-1.063 10.228-7.037-.001-1.892-.555-3.488-1.645-4.745-.174-.201-.229-.479-.145-.73.213-.635.322-1.299.322-1.971 0-.678-.116-1.05-.393-1.619-1.742.055-2.83.447-4.138 1.452-.179.136-.411.188-.628.135-2.348-.552-5.112-.537-7.586.038-.219.049-.448.001-.626-.136-1.346-1.031-2.447-1.433-4.183-1.489z"></path>
  <path d="m13.177 20.229c-.362-.022-.78-.019-1.259-.012-2.211.022-5.549.056-7.453-1.829-.894-.885-1.348-2.081-1.348-3.554 0-2.629 1.764-4.538 4.195-4.538.754 0 1.406.094 2.096.194.775.112 1.577.228 2.644.228 1.099 0 1.884-.116 2.644-.228.678-.1 1.319-.194 2.095-.194 2.431 0 4.195 1.909 4.195 4.538 0 5.395-5.877 5.395-7.809 5.395zm-.681-1.517c.279 0 .525.004.731.018 4.313-.001 6.259-1.203 6.259-3.896 0-1.463-.843-3.038-2.695-3.038-.666 0-1.227.083-1.876.178-.775.114-1.654.243-2.862.243-1.175 0-2.069-.129-2.858-.243-.663-.096-1.235-.178-1.881-.178-1.852 0-2.695 1.575-2.695 3.038 0 1.073.295 1.887.903 2.488 1.458 1.444 4.418 1.416 6.382 1.395.208-.003.407-.005.592-.005z"></path>
  <path d="M16.364 17.833c-1.379 0-2-1.462-2-2.5s.621-2.5 2-2.5 2 1.462 2 2.5-.62 2.5-2 2.5zm0-3.5c-.285 0-.5.606-.5 1s.215 1 .5 1 .5-.606.5-1-.215-1-.5-1zM7.753 17.833c-1.379 0-2-1.462-2-2.5s.621-2.5 2-2.5 2 1.462 2 2.5-.621 2.5-2 2.5zm0-3.5c-.285 0-.5.606-.5 1s.215 1 .5 1 .5-.606.5-1-.215-1-.5-1z"></path>
</svg>
